<svg width="72" height="16" viewBox="0 0 72 16" fill="none" xmlns="http://www.w3.org/2000/svg">
<path d="M7.62 10.352C7.476 10.448 7.28 10.556 7.032 10.676C6.784 10.796 6.492 10.896 6.156 10.976C5.828 11.056 5.468 11.096 5.076 11.096C4.404 11.088 3.796 10.968 3.252 10.736C2.716 10.504 2.26 10.188 1.884 9.788C1.508 9.388 1.216 8.928 1.008 8.408C0.808 7.88 0.708 7.32 0.708 6.728C0.708 6.08 0.812 5.484 1.02 4.94C1.236 4.388 1.536 3.912 1.92 3.512C2.304 3.104 2.756 2.788 3.276 2.564C3.804 2.34 4.38 2.228 5.004 2.228C5.524 2.228 5.996 2.3 6.42 2.444C6.844 2.58 7.208 2.744 7.512 2.936L7.044 4.016C6.804 3.856 6.512 3.704 6.168 3.56C5.832 3.416 5.456 3.344 5.04 3.344C4.616 3.344 4.216 3.428 3.84 3.596C3.464 3.764 3.132 4 2.844 4.304C2.556 4.608 2.328 4.964 2.16 5.372C2 5.772 1.92 6.204 1.92 6.668C1.92 7.14 1.992 7.58 2.136 7.988C2.288 8.388 2.5 8.736 2.772 9.032C3.052 9.328 3.388 9.56 3.78 9.728C4.172 9.896 4.612 9.98 5.1 9.98C5.54 9.98 5.932 9.912 6.276 9.776C6.62 9.64 6.904 9.488 7.128 9.32L7.62 10.352ZM11.368 11.12C10.904 11.12 10.48 11.02 10.096 10.82C9.72003 10.62 9.42003 10.328 9.19603 9.944C8.98003 9.552 8.87203 9.076 8.87203 8.516C8.87203 7.964 8.98803 7.488 9.22003 7.088C9.45203 6.68 9.76003 6.368 10.144 6.152C10.536 5.936 10.964 5.828 11.428 5.828C11.892 5.828 12.284 5.936 12.604 6.152C12.924 6.36 13.168 6.608 13.336 6.896L13.264 7.088L13.372 6.032H14.404V11H13.288V9.704L13.408 9.992C13.376 10.072 13.304 10.176 13.192 10.304C13.088 10.424 12.944 10.548 12.76 10.676C12.584 10.804 12.38 10.912 12.148 11C11.916 11.08 11.656 11.12 11.368 11.12ZM11.668 10.196C11.948 10.196 12.2 10.144 12.424 10.04C12.648 9.936 12.832 9.792 12.976 9.608C13.128 9.416 13.232 9.188 13.288 8.924V7.952C13.224 7.712 13.112 7.504 12.952 7.328C12.792 7.144 12.6 7.004 12.376 6.908C12.152 6.804 11.904 6.752 11.632 6.752C11.336 6.752 11.064 6.824 10.816 6.968C10.568 7.112 10.368 7.312 10.216 7.568C10.072 7.824 10 8.124 10 8.468C10 8.788 10.076 9.08 10.228 9.344C10.38 9.608 10.584 9.816 10.84 9.968C11.096 10.12 11.372 10.196 11.668 10.196ZM17.3313 6.032L17.4393 7.472L17.3793 7.28C17.5073 6.976 17.6913 6.72 17.9313 6.512C18.1793 6.296 18.4353 6.132 18.6993 6.02C18.9713 5.9 19.2073 5.84 19.4073 5.84L19.3473 6.944C18.9713 6.92 18.6393 6.992 18.3513 7.16C18.0713 7.328 17.8473 7.552 17.6793 7.832C17.5193 8.112 17.4393 8.412 17.4393 8.732V11H16.3353V6.032H17.3313ZM21.123 11V2.324H23.487C24.343 2.324 25.071 2.456 25.671 2.72C26.279 2.984 26.767 3.332 27.135 3.764C27.503 4.196 27.771 4.676 27.939 5.204C28.115 5.724 28.203 6.244 28.203 6.764C28.203 7.42 28.087 8.008 27.855 8.528C27.631 9.048 27.319 9.492 26.919 9.86C26.519 10.228 26.059 10.512 25.539 10.712C25.027 10.904 24.483 11 23.907 11H21.123ZM22.287 9.884H23.679C24.159 9.884 24.599 9.812 24.999 9.668C25.407 9.524 25.759 9.316 26.055 9.044C26.359 8.772 26.595 8.44 26.763 8.048C26.931 7.648 27.015 7.196 27.015 6.692C27.015 6.156 26.927 5.688 26.751 5.288C26.575 4.88 26.335 4.54 26.031 4.268C25.727 3.996 25.383 3.792 24.999 3.656C24.615 3.512 24.211 3.44 23.787 3.44H22.287V9.884ZM29.8822 6.032H30.9982V11H29.8822V6.032ZM29.7982 4.232C29.7982 4.056 29.8662 3.908 30.0022 3.788C30.1462 3.668 30.3022 3.608 30.4702 3.608C30.6382 3.608 30.7862 3.668 30.9142 3.788C31.0502 3.908 31.1182 4.056 31.1182 4.232C31.1182 4.416 31.0502 4.568 30.9142 4.688C30.7862 4.8 30.6382 4.856 30.4702 4.856C30.3022 4.856 30.1462 4.796 30.0022 4.676C29.8662 4.556 29.7982 4.408 29.7982 4.232ZM34.993 11.12C34.529 11.12 34.105 11.02 33.721 10.82C33.345 10.62 33.045 10.328 32.821 9.944C32.605 9.552 32.497 9.076 32.497 8.516C32.497 7.964 32.613 7.488 32.845 7.088C33.077 6.68 33.385 6.368 33.769 6.152C34.161 5.936 34.589 5.828 35.053 5.828C35.517 5.828 35.909 5.936 36.229 6.152C36.549 6.36 36.793 6.608 36.961 6.896L36.889 7.088L36.997 6.032H38.029V11H36.913V9.704L37.033 9.992C37.001 10.072 36.929 10.176 36.817 10.304C36.713 10.424 36.569 10.548 36.385 10.676C36.209 10.804 36.005 10.912 35.773 11C35.541 11.08 35.281 11.12 34.993 11.12ZM35.293 10.196C35.573 10.196 35.825 10.144 36.049 10.04C36.273 9.936 36.457 9.792 36.601 9.608C36.753 9.416 36.857 9.188 36.913 8.924V7.952C36.849 7.712 36.737 7.504 36.577 7.328C36.417 7.144 36.225 7.004 36.001 6.908C35.777 6.804 35.529 6.752 35.257 6.752C34.961 6.752 34.689 6.824 34.441 6.968C34.193 7.112 33.993 7.312 33.841 7.568C33.697 7.824 33.625 8.124 33.625 8.468C33.625 8.788 33.701 9.08 33.853 9.344C34.005 9.608 34.209 9.816 34.465 9.968C34.721 10.12 34.997 10.196 35.293 10.196ZM40.9563 6.032L41.0643 7.472L41.0043 7.28C41.1323 6.976 41.3163 6.72 41.5563 6.512C41.8043 6.296 42.0603 6.132 42.3243 6.02C42.5963 5.9 42.8323 5.84 43.0323 5.84L42.9723 6.944C42.5963 6.92 42.2643 6.992 41.9763 7.16C41.6963 7.328 41.4723 7.552 41.3043 7.832C41.1443 8.112 41.0643 8.412 41.0643 8.732V11H39.9603V6.032H40.9563ZM44.892 13.388L48.168 6.032H49.2L45.996 13.388H44.892ZM46.116 11.036L43.728 6.032H44.988L46.992 10.472L46.116 11.036Z" fill="black"/>
<g clip-path="url(#clip0_411_6)">
<path d="M59 9C59 9.26522 58.8946 9.51957 58.7071 9.70711C58.5196 9.89464 58.2652 10 58 10C57.7348 10 57.4804 9.89464 57.2929 9.70711C57.1054 9.51957 57 9.26522 57 9C57 8.73478 57.1054 8.48043 57.2929 8.29289C57.4804 8.10536 57.7348 8 58 8C58.2652 8 58.5196 8.10536 58.7071 8.29289C58.8946 8.48043 59 8.73478 59 9ZM69 9C69 9.26522 68.8946 9.51957 68.7071 9.70711C68.5196 9.89464 68.2652 10 68 10C67.7348 10 67.4804 9.89464 67.2929 9.70711C67.1054 9.51957 67 9.26522 67 9C67 8.73478 67.1054 8.48043 67.2929 8.29289C67.4804 8.10536 67.7348 8 68 8C68.2652 8 68.5196 8.10536 68.7071 8.29289C68.8946 8.48043 69 8.73478 69 9ZM61 8C60.7348 8 60.4804 8.10536 60.2929 8.29289C60.1054 8.48043 60 8.73478 60 9C60 9.26522 60.1054 9.51957 60.2929 9.70711C60.4804 9.89464 60.7348 10 61 10H65C65.2652 10 65.5196 9.89464 65.7071 9.70711C65.8946 9.51957 66 9.26522 66 9C66 8.73478 65.8946 8.48043 65.7071 8.29289C65.5196 8.10536 65.2652 8 65 8H61ZM59.862 4.276L58.906 6.19C58.8669 6.27065 58.8498 6.36018 58.8563 6.44957C58.8628 6.53896 58.8928 6.62505 58.9432 6.69917C58.9936 6.77329 59.0626 6.83282 59.1433 6.87176C59.2241 6.9107 59.3136 6.92769 59.403 6.921C60.313 6.848 61.753 6.751 63 6.751C64.247 6.751 65.688 6.848 66.597 6.921C66.6864 6.92769 66.7759 6.9107 66.8567 6.87176C66.9374 6.83282 67.0064 6.77329 67.0568 6.69917C67.1072 6.62505 67.1372 6.53896 67.1437 6.44957C67.1502 6.36018 67.1331 6.27065 67.094 6.19L66.138 4.277C66.0966 4.19387 66.0328 4.12391 65.9539 4.07499C65.8749 4.02606 65.7839 4.0001 65.691 4H60.309C60.2162 4 60.1253 4.02582 60.0463 4.07456C59.9674 4.12331 59.9036 4.19305 59.862 4.276Z" fill="black"/>
<path d="M57.52 3.515C57.7129 3.065 58.0337 2.68155 58.4425 2.41223C58.8514 2.1429 59.3304 1.99957 59.82 2H66.182C67.182 2 68.086 2.596 68.48 3.515L69.272 5.363C69.347 5.538 69.482 5.682 69.652 5.767C70.152 6.017 70.507 6.482 70.617 7.029L70.952 8.708C70.985 8.869 71.001 9.033 71.001 9.198V9.611C71.001 10.425 70.611 11.154 70.001 11.608V13.5C70.001 13.6326 69.9483 13.7598 69.8545 13.8536C69.7608 13.9473 69.6336 14 69.501 14H67.501C67.3684 14 67.2412 13.9473 67.1474 13.8536C67.0537 13.7598 67.001 13.6326 67.001 13.5V12.162C65.709 12.21 64.256 12.25 63.001 12.25C61.746 12.25 60.293 12.21 59.001 12.162V13.5C59.001 13.6326 58.9483 13.7598 58.8545 13.8536C58.7608 13.9473 58.6336 14 58.501 14H56.501C56.3684 14 56.2412 13.9473 56.1474 13.8536C56.0537 13.7598 56.001 13.6326 56.001 13.5V11.608C55.391 11.154 55.001 10.425 55.001 9.611V9.198C55.0011 9.03345 55.0176 8.86932 55.05 8.708L55.385 7.028C55.495 6.482 55.85 6.016 56.349 5.767C56.5198 5.68165 56.6548 5.5385 56.73 5.363L57.522 3.515H57.52ZM59.82 3C59.5263 3.00002 59.239 3.08626 58.9939 3.24803C58.7488 3.4098 58.5565 3.63997 58.441 3.91L57.649 5.757C57.481 6.15006 57.1786 6.47051 56.796 6.661C56.6861 6.71606 56.5902 6.79549 56.5157 6.89323C56.4412 6.99098 56.39 7.10445 56.366 7.225L56.03 8.904C56.0103 9.00077 56.0003 9.09925 56 9.198V9.611C56 10.407 56.62 11.059 57.408 11.095C58.963 11.165 61.194 11.25 63 11.25C64.806 11.25 67.037 11.166 68.592 11.095C68.9727 11.0767 69.3316 10.9122 69.5939 10.6357C69.8562 10.3592 70.0017 9.99212 70 9.611V9.198C70 9.099 69.99 9.001 69.97 8.904L69.635 7.224C69.6108 7.10363 69.5596 6.99036 69.4851 6.89279C69.4105 6.79523 69.3148 6.71596 69.205 6.661C68.8227 6.47001 68.5205 6.14972 68.352 5.757L67.56 3.909C67.4442 3.639 67.2518 3.40893 67.0064 3.24734C66.7611 3.08574 66.4737 2.99974 66.18 3H59.82Z" fill="black"/>
</g>
<defs>
<clipPath id="clip0_411_6">
<rect width="16" height="16" fill="white" transform="translate(55)"/>
</clipPath>
</defs>
</svg>
