<svg width="32" height="28" viewBox="0 0 32 28" xmlns="http://www.w3.org/2000/svg">
<path d="M3.19673 3.53C2.50028 4.22644 1.94783 5.05324 1.57091 5.96319C1.194 6.87313 1 7.84841 1 8.83333C1 9.81825 1.194 10.7935 1.57091 11.7035C1.94783 12.6134 2.50028 13.4402 3.19673 14.1367L16.0001 26.94L28.8034 14.1367C30.2099 12.7301 31.0001 10.8225 31.0001 8.83333C31.0001 6.8442 30.2099 4.93653 28.8034 3.53C27.3969 2.12347 25.4892 1.33329 23.5001 1.33329C21.5109 1.33329 19.6033 2.12347 18.1967 3.53L16.0001 5.72667L13.8034 3.53C13.107 2.83355 12.2802 2.2811 11.3702 1.90418C10.4603 1.52726 9.48499 1.33327 8.50006 1.33327C7.51514 1.33327 6.53987 1.52726 5.62992 1.90418C4.71997 2.2811 3.89317 2.83355 3.19673 3.53Z" fill="white" stroke="#FF0F0F" stroke-width="2" stroke-linecap="round" stroke-linejoin="round"/>
</svg>
